<?xml version="1.0" encoding="utf-8"?>
<!-- Generator: Adobe Illustrator 24.0.3, SVG Export Plug-In . SVG Version: 6.00 Build 0)  -->
<svg version="1.1" id="Isolation_Mode" xmlns="http://www.w3.org/2000/svg" xmlns:xlink="http://www.w3.org/1999/xlink" x="0px"
	 y="0px" viewBox="0 0 79.2 114.8" style="enable-background:new 0 0 79.2 114.8;" xml:space="preserve">
<style type="text/css">
	.st0{fill-rule:evenodd;clip-rule:evenodd;fill:#212122;}
</style>
<path class="st0" d="M58.1,56.2c-3.6-3.9-8.5-5.8-13.2-5.7c-0.5,4.7,1.1,9.7,4.7,13.6c3.6,3.9,8.5,5.8,13.2,5.7
	C63.3,65.1,61.7,60,58.1,56.2 M21.1,56.2c3.6-3.9,8.5-5.8,13.2-5.7c0.5,4.7-1.1,9.7-4.7,13.6s-8.5,5.8-13.2,5.7
	C15.9,65.1,17.5,60,21.1,56.2 M45.6,13.2c0-5.3-2.3-10.1-5.8-13.2C36.3,3.1,34,7.9,34,13.2s2.3,10.1,5.8,13.2
	C43.3,23.2,45.6,18.5,45.6,13.2 M57.9,29c3.6-5,4.8-11.1,3.5-16.4C56,13,50.6,16,46.9,21c-3.6,5-4.8,11.1-3.5,16.4
	C48.9,36.9,54.3,34,57.9,29 M64.1,48.8c7-2,12.4-6.8,15.1-12.6c-5.4-3.5-12.5-4.7-19.5-2.7s-12.4,6.8-15.1,12.6
	C50.1,49.6,57.1,50.8,64.1,48.8 M69.3,29.7c3.1-1.4,5.3-4.1,6.1-7c-2.8-1.2-6.2-1.3-9.3,0.2c-3.1,1.4-5.3,4.1-6.1,7
	C62.8,31.1,66.2,31.1,69.3,29.7 M48.8,8.9c-1.2,2.1-1.4,4.5-0.7,6.5c2.1-0.4,4.1-1.8,5.3-3.9S54.8,7,54.1,5C52,5.4,50,6.8,48.8,8.9
	 M65.7,59.8c-3.6-1.5-6.2-4.4-7.3-7.7c3.1-1.5,7-1.7,10.6-0.2c3.6,1.5,6.2,4.4,7.3,7.7C73.2,61.2,69.3,61.4,65.7,59.8 M21.3,29
	c-3.6-5-4.8-11.1-3.5-16.4C23.2,13,28.6,16,32.3,21c3.6,5,4.8,11.1,3.5,16.4C30.3,36.9,24.9,34,21.3,29 M15.1,48.8
	C8.1,46.8,2.7,42,0,36.2c5.4-3.5,12.5-4.7,19.5-2.7s12.4,6.8,15.1,12.6C29.1,49.6,22.1,50.8,15.1,48.8 M9.9,29.7
	c-3.1-1.4-5.3-4.1-6.1-7c2.8-1.2,6.2-1.3,9.3,0.2c3.1,1.4,5.3,4.1,6.1,7C16.4,31.1,13,31.1,9.9,29.7 M30.4,8.9
	c1.2,2.1,1.4,4.5,0.7,6.5C29,15,27,13.6,25.8,11.5C24.6,9.4,24.4,7,25.1,5C27.2,5.4,29.2,6.8,30.4,8.9 M13.5,59.8
	c3.6-1.5,6.2-4.4,7.3-7.7c-3.1-1.5-7-1.7-10.6-0.2S4,56.3,2.9,59.6C6,61.2,9.8,61.4,13.5,59.8 M39.6,30.6L43,75.7h-6.8L39.6,30.6z"
	/>
<path class="st0" d="M45.4,105.7c1.2,0,2.3,0,3.5,0c0.9,0,1.7,0.3,2.3,0.9c0.6,0.5,0.9,1.3,0.9,2c0,0.8-0.2,1.6-0.8,2.1
	c-0.6,0.6-1.5,0.9-2.3,1c-0.5,0-1,0-1.5,0c0,1,0,2,0,3h-2.1C45.4,111.7,45.4,108.7,45.4,105.7 M47.5,107.4c0.5,0,0.9,0,1.4,0
	c0.4,0,0.7,0.2,1,0.5c0.3,0.4,0.3,0.9,0.1,1.3s-0.6,0.7-1,0.7c-0.5,0-1,0-1.5,0C47.5,109.1,47.5,108.2,47.5,107.4 M27.8,105.7
	c1.2,0,2.4,0,3.6,0c0.9,0,1.7,0.3,2.3,0.9c0.5,0.5,0.8,1.2,0.8,2c0,0.7-0.2,1.4-0.7,1.9c-0.2,0.2-0.5,0.4-0.7,0.6
	c0.5,1.2,1,2.4,1.5,3.7c-0.8,0-1.5,0-2.3,0c-0.4-1.1-0.8-2.1-1.2-3.2c-0.4,0-0.8,0-1.2,0v3.2h-2.1C27.8,111.7,27.8,108.7,27.8,105.7
	 M29.9,107.4c0.4,0,0.8,0,1.3,0c0.4,0,0.7,0.1,1,0.4c0.3,0.4,0.4,0.9,0.2,1.3s-0.6,0.6-1.1,0.6c-0.4,0-0.9,0-1.3,0
	C29.9,109,29.9,108.2,29.9,107.4 M56.6,105.5c0.8-0.1,1.7,0.1,2.5,0.5c0.6,0.4,1.1,1,1.3,1.8c0.1,0.3,0.1,0.7,0.1,1c0,1,0,2,0,2.9
	c0,0.4-0.1,0.9-0.2,1.3c-0.3,0.6-0.8,1.1-1.4,1.4c-0.8,0.4-1.7,0.4-2.6,0.3c-0.9-0.1-1.7-0.6-2.1-1.3c-0.3-0.5-0.5-1.1-0.5-1.7
	c0-1.1,0-2.1,0-3.2c0-0.8,0.2-1.6,0.8-2.1C55,105.8,55.8,105.6,56.6,105.5 M56.6,107.4c0.5-0.1,1-0.1,1.4,0.3c0.3,0.3,0.4,0.6,0.4,1
	c0,1,0,1.9,0,2.9c0,0.4,0,0.8-0.3,1.1c-0.3,0.4-0.8,0.5-1.3,0.4c-0.4,0-0.7-0.2-0.9-0.6c-0.2-0.3-0.2-0.6-0.2-0.9V109
	c0-0.3,0-0.7,0.1-1C56,107.7,56.3,107.4,56.6,107.4 M36.5,105.7c0.7,0,1.4,0,2.1,0c0,2,0,4,0,6c0,0.4,0.1,0.8,0.4,1
	c0.4,0.4,1.2,0.4,1.6,0.1c0.3-0.3,0.5-0.7,0.5-1.1c0-2,0-4,0-6c0.7,0,1.4,0,2.1,0v5.5c0,0.5,0,0.9-0.1,1.4c-0.2,0.7-0.6,1.3-1.2,1.7
	c-0.7,0.5-1.7,0.6-2.6,0.5c-0.8-0.1-1.5-0.4-2-0.9c-0.5-0.6-0.8-1.3-0.8-2.1C36.5,109.7,36.5,107.7,36.5,105.7 M20.2,106
	c0.8-0.4,1.7-0.5,2.5-0.4c0.9,0.1,1.7,0.5,2.2,1.2c0.4,0.6,0.5,1.3,0.5,1.9h-2c0-0.3,0-0.7-0.2-1c-0.3-0.3-0.7-0.4-1.1-0.4
	s-0.7,0.2-1,0.4c-0.2,0.3-0.3,0.6-0.3,1c0,1,0,2,0,3c0,0.4,0.1,0.8,0.4,1.1c0.3,0.3,0.8,0.3,1.3,0.2c0.3-0.1,0.6-0.3,0.8-0.6
	c0.1-0.3,0.2-0.6,0.2-0.8c-0.4,0-0.8,0-1.2,0c0-0.5,0-1,0-1.5c1.1,0,2.1,0,3.2,0c0,0.6,0,1.1,0,1.7c0,0.4-0.1,0.8-0.2,1.2
	c-0.2,0.7-0.8,1.3-1.5,1.6c-0.8,0.4-1.7,0.4-2.6,0.2c-0.8-0.2-1.6-0.7-2-1.4c-0.3-0.5-0.4-1.1-0.4-1.6c0-0.9,0-1.9,0-2.8
	c0-0.5,0-1,0.2-1.5C19.2,106.8,19.6,106.3,20.2,106"/>
<path class="st0" d="M20.6,83c1.5,0,3,0,4.5,0c1.8,6.3,3.6,12.2,5.4,18.5c-1.4,0-2.9,0-4.3,0c-0.3-1-0.5-1.6-0.8-2.6
	c-1.8,0-3.6,0-5.5,0c-0.1,0.1-0.1,0.3-0.2,0.4c-0.2,0.9-0.4,1.3-0.6,2.1c-1.4,0-2.7,0-4.1,0C16.9,95.2,18.7,89.3,20.6,83 M20.8,95.4
	c0.6-2.5,1.3-4.9,1.9-7.4c0.6,2.5,1.3,4.9,1.9,7.4C23.3,95.4,22.1,95.4,20.8,95.4 M56.6,82.7c1.9-0.1,4,0.2,5.5,1.5
	c1.4,1.1,2.1,2.9,2.1,4.6c0,1.8,0,3.1,0,4.9c0,1.3,0.1,2.6-0.4,3.9c-0.5,1.5-1.6,2.7-3,3.4c-1.6,0.8-3.5,0.9-5.3,0.6
	c-1.7-0.3-3.3-1.3-4.2-2.8c-0.6-1.1-0.9-2.3-0.9-3.6c0-2.2,0-4,0-6.3c0-1.6,0.5-3.2,1.6-4.3C53.2,83.4,54.9,82.8,56.6,82.7
	 M56.7,86.5c0.7-0.1,1.5-0.1,2.1,0.3c0.5,0.3,0.9,0.8,1.1,1.3c0.2,0.6,0.2,1.1,0.2,1.7c0,2,0,3.5,0,5.5c0,0.8-0.3,1.8-1,2.3
	c-0.9,0.6-2.1,0.6-3,0.2s-1.3-1.4-1.3-2.4c0-2.1,0-3.7,0-5.7c0-0.6,0-1.3,0.3-1.9C55.3,87.1,56,86.6,56.7,86.5 M0.1,83
	c2.4,0,4.8,0,7.1,0c1.7,0,3.4,0.6,4.7,1.7c1.1,1,1.7,2.4,1.7,3.9c0.1,1.5-0.3,3.1-1.2,4.3c-0.4,0.6-1,1-1.6,1.4c1,2.6,2,4.7,3,7.3
	c-1.5,0-3.1,0-4.6,0c-0.8-2.2-1.6-4-2.5-6.3H4.3c0,2.2,0,4,0,6.3H0.1C0.1,95.2,0.1,89.3,0.1,83 M4.3,86.6c0.8,0,1.6,0,2.4,0
	c0.7,0,1.5,0.2,2,0.7c0.8,0.7,0.9,1.9,0.5,2.8c-0.3,0.8-1.2,1.3-2.1,1.3c-0.9,0.1-1.9,0-2.8,0C4.3,89.9,4.3,88.3,4.3,86.6 M32.1,83
	c1.2,0,2.4,0,3.6,0c1.4,2.5,2.9,5.1,4.3,7.6c1.4-2.5,2.8-5.1,4.3-7.6c1.2,0,2.4,0,3.6,0c0,6.3,0,12.2,0,18.5h-4.1
	c0-3.6,0-6.7,0-10.2c-0.9,1.5-1.7,3-2.6,4.5h-2.4c-0.9-1.5-1.8-3.1-2.7-4.6c0,3.6,0,6.7,0,10.3h-3.9C32.1,95.2,32.2,89.3,32.1,83
	 M69.1,83.5c1.6-0.9,3.5-1,5.2-0.6c1.5,0.3,3,1.2,3.7,2.6c0.6,1,0.7,2.1,0.7,3.2h-4c0-0.6,0-1.2-0.3-1.7c-0.8-1.1-2.5-1.2-3.5-0.4
	c-0.6,0.6-0.7,1.7-0.1,2.3c0.6,0.6,1.5,0.8,2.3,1.1c1.5,0.6,3.1,1,4.4,2.1c1.1,0.8,1.6,2.2,1.6,3.5c0.1,1.6-0.4,3.2-1.5,4.3
	c-1.2,1.3-3,1.8-4.8,1.9c-1.7,0-3.4-0.3-4.8-1.4c-1.1-0.8-1.8-2-2-3.4c0-0.5,0-1,0-1.5c1.3,0,2.7,0,4,0c0,0.7-0.1,1.4,0.3,2
	s1.2,0.8,1.9,0.9c0.8,0,1.7-0.1,2.3-0.6c0.6-0.5,0.7-1.5,0.4-2.2c-0.2-0.5-0.7-0.9-1.3-1.1c-1.1-0.4-2.3-0.8-3.4-1.2
	c-1.2-0.5-2.4-1.2-3.1-2.3c-0.7-1.1-0.9-2.4-0.7-3.6C66.7,85.7,67.7,84.3,69.1,83.5"/>
</svg>
